<?xml version="1.0" encoding="utf-8"?>
<!-- Generator: Adobe Illustrator 16.0.0, SVG Export Plug-In . SVG Version: 6.00 Build 0)  -->
<!DOCTYPE svg PUBLIC "-//W3C//DTD SVG 1.1//EN" "http://www.w3.org/Graphics/SVG/1.1/DTD/svg11.dtd">
<svg version="1.1" id="Layer_1" xmlns="http://www.w3.org/2000/svg" xmlns:xlink="http://www.w3.org/1999/xlink" x="0px" y="0px"
	 width="601.059px" height="603.353px" viewBox="4.821 16.664 601.059 603.353"
	 enable-background="new 4.821 16.664 601.059 603.353" xml:space="preserve">
<path fill="#FFFFFF" d="M306,197.1c-67.602,0-122.4,54.798-122.4,122.4S238.398,441.9,306,441.9s122.4-54.799,122.4-122.4
	S373.602,197.1,306,197.1z M306,252.18c-44.823,0-67.32,43.158-67.32,67.32c0,6.756-5.484,12.24-12.24,12.24
	s-12.24-5.484-12.24-12.24c0-37.521,32.693-91.8,91.8-91.8c6.757,0,12.24,5.483,12.24,12.24S312.757,252.18,306,252.18z
	 M486.577,214.854c-21.824-61.273-36.58-100.289-89.456-145.313c-42.969-36.58-92.18-52.877-140.711-52.877
	c-98.612,0-194.445,67.283-229.519,168.422c-29.694,85.625-38.501,209.689,32.21,278.87c60.178,58.869,149.181,6.298,207.425,69.089
	c40.998,44.205,77.914,86.972,133.642,86.972c16.457,0,34.561-3.733,54.891-12.265c80.19-33.647,150.821-120.687,150.821-208.692
	C605.88,304.433,513.756,291.177,486.577,214.854z M445.604,585.169c-16.604,6.971-31.476,10.35-45.423,10.35
	c-42.503,0-73.844-33.887-110.148-73.128l-5.557-5.998c-36.353-39.18-81.604-41.689-121.525-43.917
	c-34.205-1.903-63.746-3.544-86.727-26.028c-58.838-57.546-55.239-168.71-25.888-253.344
	C81.359,103.629,165.24,41.144,257.04,41.144c42.84,0,88.366,16.267,124.529,47.039c47.045,40.049,59.72,72.038,82.106,134.891
	c13.623,38.256,40.557,62.657,64.376,84.187c29.848,26.971,53.391,48.269,53.391,91.8
	C581.443,471.466,521.761,553.211,445.604,585.169z"/>
</svg>
