<?xml version="1.0" encoding="utf-8"?>
<!-- Generator: Adobe Illustrator 16.0.0, SVG Export Plug-In . SVG Version: 6.00 Build 0)  -->
<!DOCTYPE svg PUBLIC "-//W3C//DTD SVG 1.1//EN" "http://www.w3.org/Graphics/SVG/1.1/DTD/svg11.dtd">
<svg version="1.1" id="Layer_1" xmlns="http://www.w3.org/2000/svg" xmlns:xlink="http://www.w3.org/1999/xlink" x="0px" y="0px"
	 width="461.038px" height="477.915px" viewBox="75.478 80.54 461.038 477.915"
	 enable-background="new 75.478 80.54 461.038 477.915" xml:space="preserve">
<path fill="#FFFFFF" d="M526.222,230.515L319.47,84.859c-8.133-5.759-18.825-5.759-26.916,0l-93.905,66.133V91.597h-40.992v88.269
	l-71.965,50.649c-6.224,4.48-9.854,11.542-10.214,19.088h38.115v285.859c0,12.674,10.294,22.992,23.023,22.992h338.785
	c12.729,0,22.938-10.318,22.938-22.992V249.609h38.176C536.124,242.063,532.501,234.995,526.222,230.515z M272.542,382.67
	c0,3.14-2.558,5.722-5.722,5.722h-68.636c-3.152,0-5.741-2.583-5.741-5.722v-63.018c0-3.182,2.595-5.759,5.741-5.759h68.636
	c3.164,0,5.722,2.577,5.722,5.759V382.67z M419.973,382.67c0,3.14-2.57,5.722-5.771,5.722h-68.636c-3.225,0-5.783-2.583-5.783-5.722
	v-63.018c0-3.182,2.559-5.759,5.783-5.759h68.636c3.201,0,5.771,2.577,5.771,5.759V382.67z"/>
</svg>
