<?xml version="1.0" encoding="utf-8"?>
<!-- Generator: Adobe Illustrator 16.0.0, SVG Export Plug-In . SVG Version: 6.00 Build 0)  -->
<!DOCTYPE svg PUBLIC "-//W3C//DTD SVG 1.1//EN" "http://www.w3.org/Graphics/SVG/1.1/DTD/svg11.dtd">
<svg version="1.1"
	 id="Layer_1" xmlns:dc="http://purl.org/dc/elements/1.1/" xmlns:inkscape="http://www.inkscape.org/namespaces/inkscape" xmlns:rdf="http://www.w3.org/1999/02/22-rdf-syntax-ns#" xmlns:cc="http://creativecommons.org/ns#" xmlns:svg="http://www.w3.org/2000/svg" xmlns:sodipodi="http://sodipodi.sourceforge.net/DTD/sodipodi-0.dtd"
	 xmlns="http://www.w3.org/2000/svg" xmlns:xlink="http://www.w3.org/1999/xlink" x="0px" y="0px" width="611.901px"
	 height="611.914px" viewBox="0.053 13.535 611.901 611.914" enable-background="new 0.053 13.535 611.901 611.914"
	 xml:space="preserve">
<path fill="#FFFFFF" d="M568.303,379.67c34.426-41.831,46.757-70.564,43.004-88.873c0.408-18.697-16.892-44.656-58.304-79.376
	c3.662-54.407-2.968-85.027-16.595-97.594c-10.466-15.372-39.484-26.041-93.065-29.376c-28.479-46.206-51.551-67.014-69.839-69.044
	c-17.36-6.171-46.992,2.53-92.27,31.854c-49.776-20.369-80.468-23.409-96.431-14.106c-17.616,5.386-36.547,30.141-56.223,80.906
	c-52.04,13.26-78.622,29.142-86.169,46.206c-11.138,14.872-12.148,46.216,1.285,99.052C9.262,301.16-3.06,329.894,0.704,348.203
	c-0.408,18.697,16.901,44.656,58.303,79.367c-3.672,54.438,2.979,85.058,16.606,97.604c10.485,15.371,39.494,26.03,93.044,29.366
	c28.488,46.216,51.571,67.023,69.85,69.043c17.37,6.161,46.991-2.539,92.259-31.854c49.776,20.37,80.478,23.409,96.431,14.117
	c17.626-5.386,36.557-30.142,56.232-80.906c52.051-13.271,78.643-29.152,86.17-46.217
	C580.727,463.83,581.727,432.495,568.303,379.67z M306,447c-70.421,0-127.5-57.079-127.5-127.5S235.579,192,306,192
	s127.5,57.079,127.5,127.5S376.421,447,306,447z"/>
</svg>
